<?xml version="1.0" encoding="iso-8859-1"?>
<!-- Generator: Adobe Illustrator 19.0.0, SVG Export Plug-In . SVG Version: 6.00 Build 0)  -->
<svg version="1.1" id="Capa_1" xmlns="http://www.w3.org/2000/svg" xmlns:xlink="http://www.w3.org/1999/xlink" x="0px" y="0px"
	 viewBox="0 0 468.293 468.293" style="enable-background:new 0 0 468.293 468.293;" xml:space="preserve">
<path style="fill:#64798A;" d="M364.275,140.489l32.721-32.721c2.676-2.676,2.676-7.016,0-9.692l-14.978-14.978
	c-2.676-2.676-7.016-2.677-9.692,0l-32.721,32.721L364.275,140.489z"/>
<path style="fill:#3A556A;" d="M364.275,140.489l32.721-32.721c2.676-2.676,2.676-7.016,0-9.692l-6.688-6.688l-37.567,37.567
	L364.275,140.489z"/>
<path style="fill:#64798A;" d="M104.018,140.489l-32.721-32.721c-2.676-2.676-2.676-7.016,0-9.692l14.978-14.978
	c2.676-2.676,7.016-2.677,9.692,0l32.721,32.721L104.018,140.489z"/>
<path style="fill:#3A556A;" d="M104.018,140.489l-32.721-32.721c-2.676-2.676-2.676-7.016,0-9.692l6.688-6.688l37.567,37.567
	L104.018,140.489z"/>
<rect x="211.106" y="33.08" style="fill:#D5D6DB;" width="46.13" height="66.835"/>
<circle style="fill:#CE412D;" cx="234.146" cy="270.511" r="197.782"/>
<circle style="fill:#EBF0F3;" cx="234.146" cy="270.511" r="155.192"/>
<path style="fill:#3A556A;" d="M184.87,9.855v29.905c0,5.443,4.412,9.855,9.855,9.855h78.842c5.443,0,9.855-4.412,9.855-9.855V9.855
	c0-5.443-4.412-9.855-9.855-9.855h-78.842C189.283,0,184.87,4.412,184.87,9.855z"/>
<path style="fill:#2F4859;" d="M273.567,0h-37.608v49.616h37.608c5.443,0,9.855-4.413,9.855-9.855V9.855
	C283.422,4.412,279.01,0,273.567,0z"/>
<path style="fill:#E1E6E9;" d="M124.409,380.246c60.606,60.606,158.868,60.606,219.474,0s60.606-158.868,0-219.474"/>
<path style="fill:#2F4859;" d="M245.361,257.595V164.14c0-6.194-5.021-11.215-11.215-11.215c-6.194,0-11.215,5.021-11.215,11.215
	v93.455H245.361z"/>
<circle style="fill:#3A556A;" cx="234.146" cy="270.511" r="29.646"/>
<g>
</g>
<g>
</g>
<g>
</g>
<g>
</g>
<g>
</g>
<g>
</g>
<g>
</g>
<g>
</g>
<g>
</g>
<g>
</g>
<g>
</g>
<g>
</g>
<g>
</g>
<g>
</g>
<g>
</g>
</svg>
